<svg id="Capa_1" enable-background="new 0 0 497 497" height="512" viewBox="0 0 497 497" width="512" xmlns="http://www.w3.org/2000/svg"><g><path d="m414.165 41.411c9.15 0 16.568 7.417 16.568 16.568v422.454c0 9.15-7.418 16.568-16.568 16.568h-331.33c-9.15 0-16.568-7.418-16.568-16.568v-422.454c0-9.15 7.418-16.568 16.568-16.568z" fill="#b25e1e"/><path d="m414.165 41.411h-23c9.15 0 16.567 7.417 16.567 16.568v422.454c0 9.15-7.417 16.568-16.567 16.568h23c9.15 0 16.567-7.417 16.567-16.568v-422.454c0-9.151-7.417-16.568-16.567-16.568z" fill="#844d28"/><path d="m397.599 80.547v377.321c0 3.314-2.686 6-6 6h-286.199c-3.314 0-6-2.686-6-6v-377.321c0-3.314 2.686-6 6-6h286.199c3.314 0 6 2.687 6 6z" fill="#f2f6fc"/><path d="m391.599 74.547h-23c3.314 0 6 2.686 6 6v377.321c0 3.314-2.686 6-6 6h23c3.314 0 6-2.686 6-6v-377.321c0-3.313-2.686-6-6-6z" fill="#cdd2e1"/><g><path d="m248.5 322.267h-33.133c-4.143 0-7.5-3.358-7.5-7.5s3.357-7.5 7.5-7.5h33.133c4.143 0 7.5 3.358 7.5 7.5s-3.357 7.5-7.5 7.5z" fill="#19cffc"/></g><g><path d="m281.633 355.397h-66.267c-4.143 0-7.5-3.358-7.5-7.5s3.357-7.5 7.5-7.5h66.267c4.143 0 7.5 3.358 7.5 7.5s-3.358 7.5-7.5 7.5z" fill="#9ca1af"/></g><g><path d="m331.334 355.4h-24.852c-4.143 0-7.5-3.358-7.5-7.5s3.357-7.5 7.5-7.5h24.852c4.143 0 7.5 3.358 7.5 7.5s-3.357 7.5-7.5 7.5z" fill="#06ccab"/></g><path d="m248.501 154.578s-.001-.001-.001-.001c-16.174-16.174-42.397-16.174-58.571 0s-16.174 42.397 0 58.571c0 0 .001.001.001.001l54.329 54.329c2.343 2.343 6.142 2.343 8.485 0l54.329-54.329c16.174-16.174 16.174-42.397 0-58.571-16.175-16.175-42.398-16.175-58.572 0z" fill="#ff7045"/><g><path d="m182.233 355.4h-33.133c-4.143 0-7.5-3.358-7.5-7.5v-33.133c0-4.142 3.357-7.5 7.5-7.5h33.134c4.143 0 7.5 3.358 7.5 7.5v33.133c-.001 4.142-3.358 7.5-7.501 7.5zm-25.633-15h18.134v-18.133h-18.134z" fill="#9ca1af"/></g><g><path d="m248.5 388.534h-33.133c-4.143 0-7.5-3.358-7.5-7.5s3.357-7.5 7.5-7.5h33.133c4.143 0 7.5 3.358 7.5 7.5s-3.357 7.5-7.5 7.5z" fill="#19cffc"/></g><g><path d="m281.633 421.664h-66.267c-4.143 0-7.5-3.358-7.5-7.5s3.357-7.5 7.5-7.5h66.267c4.143 0 7.5 3.358 7.5 7.5s-3.358 7.5-7.5 7.5z" fill="#9ca1af"/></g><g><path d="m331.334 421.666h-24.852c-4.143 0-7.5-3.358-7.5-7.5s3.357-7.5 7.5-7.5h24.852c4.143 0 7.5 3.358 7.5 7.5s-3.357 7.5-7.5 7.5z" fill="#06ccab"/></g><g><path d="m182.233 421.667h-33.133c-4.143 0-7.5-3.358-7.5-7.5v-33.133c0-4.142 3.357-7.5 7.5-7.5h33.134c4.143 0 7.5 3.358 7.5 7.5v33.133c-.001 4.142-3.358 7.5-7.501 7.5zm-25.633-15h18.134v-18.133h-18.134z" fill="#9ca1af"/></g><path d="m307.072 154.577c-11.043-11.043-26.77-14.54-40.786-10.503 6.512 1.876 12.655 5.373 17.786 10.503 16.174 16.174 16.174 42.397 0 58.571l-47.071 47.072 7.257 7.257c2.343 2.343 6.142 2.343 8.485 0l54.329-54.329c16.174-16.173 16.174-42.397 0-58.571z" fill="#f44945"/><path d="m284.941 24.847c-2.506 0-4.7-1.576-5.622-3.906-4.857-12.266-16.825-20.941-30.818-20.941-13.994 0-25.961 8.675-30.818 20.941-.923 2.33-3.117 3.906-5.622 3.906h-32.108c-3.314 0-6 2.686-6 6v54.269c0 3.314 2.686 6 6 6h137.097c3.314 0 6-2.686 6-6v-54.269c0-3.314-2.686-6-6-6z" fill="#9ca1af"/><g fill="#717891"><path d="m241.001 91.116v-16.566c0-4.142 3.357-7.5 7.5-7.5s7.5 3.358 7.5 7.5v16.566z"/><g><path d="m317.05 24.847h-23c3.314 0 6 2.686 6 6v54.269c0 3.314-2.686 6-6 6h23c3.314 0 6-2.686 6-6v-54.269c0-3.313-2.686-6-6-6z"/><path d="m256.318 20.941c.923 2.33 3.117 3.906 5.623 3.906h23c-2.506 0-4.7-1.576-5.623-3.906-4.856-12.266-16.824-20.941-30.817-20.941-4.047 0-7.915.745-11.5 2.074 8.811 3.264 15.865 10.149 19.317 18.867z"/></g></g></g></svg>